<svg
  fill="none"
  stroke="#fafafa"
  stroke-linecap="round"
  stroke-linejoin="round"
  stroke-width="2"
  viewBox="0 0 24 24"
  xmlns="http://www.w3.org/2000/svg"
>
  <defs>
    <radialGradient
      id="cornerRadiant"
      cx="0%"
      cy="0%"
      fx="0%"
      fy="0%"
      r="130%"
    >
      <stop
        offset="0%"
        stop-color="#35d492"
      />

      <stop
        offset="100%"
        stop-color="#a286da"
      />
    </radialGradient>
  </defs>

  <rect
    fill="url(#cornerRadiant)"
    height="100%"
    rx="6"
    ry="6"
    stroke="none"
    width="100%"
  />

  <g transform="translate(3.6, 3.6) scale(0.7)">
    <path d="M17 8v-3a1 1 0 0 0 -1 -1h-10a2 2 0 0 0 0 4h12a1 1 0 0 1 1 1v3m0 4v3a1 1 0 0 1 -1 1h-12a2 2 0 0 1 -2 -2v-12" />
    <path d="M20 12v4h-4a2 2 0 0 1 0 -4h4" />
  </g>
</svg>
